<svg width="160" height="66" viewBox="0 0 160 66" fill="none" xmlns="http://www.w3.org/2000/svg">
<rect y="0.204346" width="160" height="65" fill="#040D2E"/>
<g clip-path="url(#clip0_453_2836)">
<path d="M45.469 23.6094H41.3591C41.2329 23.6094 41.112 23.6606 41.0228 23.7519C40.9336 23.8432 40.8834 23.9669 40.8834 24.096V30.1785H35.0802V24.096C35.0802 23.9669 35.03 23.8432 34.9408 23.7519C34.8516 23.6606 34.7307 23.6094 34.6045 23.6094H30.4757C30.3495 23.6094 30.2285 23.6606 30.1393 23.7519C30.0501 23.8432 30 23.9669 30 24.096V42.0125C30 42.1416 30.0501 42.2654 30.1393 42.3566C30.2285 42.4479 30.3495 42.4991 30.4757 42.4991H34.6045C34.7307 42.4991 34.8516 42.4479 34.9408 42.3566C35.03 42.2654 35.0802 42.1416 35.0802 42.0125V34.9861H40.8834V42.0125C40.8834 42.1416 40.9336 42.2654 41.0228 42.3566C41.112 42.4479 41.2329 42.4991 41.3591 42.4991H45.469C45.5944 42.4966 45.7139 42.4446 45.8026 42.3539C45.8913 42.2631 45.9422 42.1408 45.9447 42.0125V24.096C45.9447 23.9669 45.8945 23.8432 45.8053 23.7519C45.7161 23.6606 45.5951 23.6094 45.469 23.6094Z" fill="white"/>
<path d="M53.7734 24.8745C53.414 24.5073 52.9564 24.2572 52.4582 24.156C51.96 24.0548 51.4436 24.107 50.9744 24.3059C50.5051 24.5049 50.104 24.8417 49.8219 25.2738C49.5397 25.7058 49.3892 26.2138 49.3892 26.7334C49.3892 27.253 49.5397 27.7609 49.8219 28.193C50.104 28.625 50.5051 28.9618 50.9744 29.1608C51.4436 29.3597 51.96 29.4119 52.4582 29.3107C52.9564 29.2095 53.414 28.9594 53.7734 28.5922C54.0121 28.3467 54.2007 28.055 54.3281 27.7342C54.4555 27.4134 54.5192 27.0699 54.5154 26.7236C54.521 26.38 54.458 26.0388 54.3304 25.7209C54.2029 25.403 54.0133 25.1151 53.7734 24.8745Z" fill="#5468FF"/>
<path d="M89.2368 24.1156C88.8135 24.1143 88.3964 24.22 88.0227 24.4233C87.649 24.6266 87.3302 24.9212 87.0947 25.281C86.8591 25.6408 86.7141 26.0545 86.6726 26.4854C86.631 26.9163 86.6942 27.351 86.8565 27.7509C87.0188 28.1508 87.2753 28.5034 87.603 28.7775C87.9307 29.0516 88.3195 29.2386 88.7348 29.3218C89.1502 29.4051 89.5793 29.3821 89.9838 29.2548C90.3884 29.1276 90.756 28.9 91.0539 28.5923C91.2913 28.3464 91.4784 28.0544 91.6042 27.7336C91.73 27.4127 91.792 27.0694 91.7864 26.7238C91.7903 26.3802 91.7268 26.0393 91.6 25.7211C91.4733 25.4029 91.2857 25.1138 91.0482 24.8708C90.8107 24.6279 90.528 24.4359 90.2169 24.3062C89.9058 24.1765 89.5726 24.1117 89.2368 24.1156Z" fill="#00DCD1"/>
<path d="M98.9593 24.8746C98.6019 24.5059 98.1455 24.2543 97.648 24.1517C97.1504 24.0491 96.6344 24.1002 96.1653 24.2984C95.6962 24.4966 95.2954 24.833 95.0136 25.2648C94.7319 25.6967 94.582 26.2045 94.5831 26.7236C94.5797 27.0693 94.6446 27.412 94.7737 27.7314C94.9028 28.0508 95.0937 28.3403 95.3347 28.5824C95.571 28.8273 95.8525 29.0216 96.1628 29.1543C96.473 29.287 96.8059 29.3553 97.1422 29.3553C97.4785 29.3553 97.8115 29.287 98.1218 29.1543C98.4321 29.0216 98.7135 28.8273 98.9498 28.5824C99.1903 28.3383 99.3801 28.0469 99.5076 27.7258C99.6351 27.4047 99.6978 27.0605 99.6919 26.7139C99.6979 26.3726 99.6361 26.0335 99.5101 25.7173C99.3842 25.4011 99.1968 25.1144 98.9593 24.8746Z" fill="#00DCD1"/>
<path d="M54.2393 31.6188C54.198 31.5705 54.1466 31.5323 54.089 31.507C54.0314 31.4818 53.969 31.4701 53.9063 31.4728H50.1009C49.9764 31.4753 49.8578 31.5277 49.7706 31.6187C49.6835 31.7097 49.6347 31.832 49.6348 31.9594V41.9736C49.6348 42.1026 49.6848 42.2264 49.774 42.3177C49.8632 42.4089 49.9843 42.4602 50.1104 42.4602H53.9158C54.042 42.4602 54.163 42.4089 54.2522 42.3177C54.3414 42.2264 54.3915 42.1026 54.3915 41.9736V31.9594C54.3911 31.8949 54.3772 31.8311 54.351 31.7724C54.3248 31.7137 54.2867 31.6613 54.2393 31.6188Z" fill="white"/>
<path d="M128.078 38.1977C127.873 37.9239 127.615 37.6962 127.321 37.5287C127.026 37.3613 126.701 37.2577 126.366 37.2245C126.026 37.1837 125.682 37.2145 125.355 37.315C125.028 37.4154 124.724 37.5833 124.463 37.8084C124.197 38.024 123.976 38.2917 123.813 38.5959C123.649 38.9 123.547 39.2345 123.512 39.5796C123.469 39.9254 123.496 40.2763 123.591 40.611C123.686 40.9457 123.847 41.2571 124.063 41.526C124.271 41.8012 124.532 42.0297 124.83 42.1971C125.128 42.3645 125.456 42.4674 125.795 42.4992H126.09C126.717 42.497 127.322 42.2554 127.784 41.8216C128.247 41.3879 128.535 40.7932 128.592 40.1538C128.644 39.8091 128.625 39.4572 128.536 39.1204C128.448 38.7836 128.292 38.4693 128.078 38.1977Z" fill="#5468FF"/>
<path d="M129.562 24.3393L125.757 23.9403C125.63 23.9294 125.505 23.9677 125.405 24.0473C125.356 24.0882 125.316 24.1385 125.287 24.1953C125.257 24.252 125.239 24.3142 125.234 24.3782L124.225 34.373C124.215 34.5021 124.253 34.6303 124.33 34.733C124.37 34.7826 124.419 34.8237 124.474 34.8537C124.53 34.8838 124.591 34.9023 124.653 34.9082L128.459 35.2683C128.575 35.2692 128.689 35.226 128.776 35.147C128.864 35.068 128.92 34.9588 128.934 34.8401L129.943 24.8746C129.957 24.7527 129.926 24.6298 129.855 24.5306C129.785 24.4313 129.68 24.363 129.562 24.3393Z" fill="white"/>
<path d="M77.4508 33.6723C77.0198 33.1195 76.4696 32.6765 75.843 32.378C76.33 32.0898 76.7593 31.7101 77.1083 31.2588C77.6541 30.4983 77.9384 29.5743 77.9169 28.6312C77.9571 27.8988 77.8159 27.1679 77.5066 26.5062C77.1973 25.8445 76.7299 25.2732 76.1474 24.8454C74.6801 23.9297 72.9728 23.4982 71.2575 23.6095H65.8443C65.7182 23.6095 65.5971 23.6607 65.5079 23.752C65.4187 23.8432 65.3687 23.967 65.3687 24.0961V42.0126C65.3687 42.1417 65.4187 42.2654 65.5079 42.3567C65.5971 42.4479 65.7182 42.4992 65.8443 42.4992H70.6011C72.6253 42.6284 74.6415 42.1407 76.3948 41.0978C77.4888 40.2503 78.2135 38.997 78.4128 37.6081C78.6121 36.2191 78.2701 34.8057 77.4603 33.6723H77.4508ZM70.1254 34.6455H71.3907C71.9919 34.6009 72.5899 34.7693 73.0841 35.1224C73.2639 35.2793 73.405 35.4775 73.4959 35.7007C73.5868 35.9239 73.6249 36.1659 73.6073 36.407C73.6224 36.6606 73.5805 36.9144 73.4849 37.1489C73.3892 37.3833 73.2424 37.5923 73.0555 37.7597C72.5787 38.1298 71.9881 38.3128 71.3907 38.2755H70.1254V34.6455ZM72.675 30.2272C72.1925 30.5566 71.6174 30.7139 71.0387 30.6749H70.0873V27.6093H70.9055C71.5257 27.562 72.1463 27.6971 72.694 27.9986C72.8543 28.1207 72.9801 28.2842 73.0587 28.4722C73.1372 28.6602 73.1656 28.8662 73.1411 29.0691C73.1643 29.2862 73.1357 29.5059 73.0579 29.7092C72.98 29.9126 72.8552 30.0937 72.694 30.2369L72.675 30.2272Z" fill="white"/>
<path d="M119.489 33.5263C118.486 32.3423 117.255 31.3817 115.874 30.704L113.819 29.5362C113.529 29.3918 113.273 29.1861 113.067 28.9328C112.937 28.7668 112.863 28.5617 112.858 28.3489C112.852 28.2182 112.879 28.0881 112.936 27.9708C112.992 27.8534 113.077 27.7525 113.182 27.6774C113.676 27.2978 114.637 27.2492 116.036 27.8039C116.846 28.1316 117.623 28.539 118.357 29.0204C118.431 29.063 118.514 29.0854 118.599 29.0854C118.684 29.0854 118.768 29.063 118.842 29.0204C118.917 28.9784 118.98 28.9164 119.023 28.8411C119.067 28.7657 119.09 28.6797 119.089 28.5922V24.3977C119.089 24.2952 119.058 24.1953 119 24.1116C118.942 24.028 118.86 23.9647 118.766 23.9306C117.955 23.6402 117.125 23.4061 116.283 23.2299C113.429 22.6459 111.307 23.1423 109.747 24.495C109.186 24.9661 108.736 25.561 108.431 26.2351C108.126 26.9092 107.974 27.6452 107.987 28.3878C107.985 29.5071 108.317 30.6003 108.938 31.5215C109.658 32.5239 110.587 33.3486 111.659 33.935L113.419 34.9569C115.255 36.0274 115.522 36.6989 115.522 37.0006C115.528 37.1735 115.489 37.3448 115.408 37.4971C115.328 37.6493 115.21 37.7769 115.065 37.8667C114.333 38.402 112.906 38.3631 111.555 37.8667C110.625 37.5006 109.732 37.0409 108.891 36.4945C108.816 36.4479 108.731 36.4231 108.644 36.4229C108.556 36.4227 108.471 36.447 108.396 36.4932C108.322 36.5394 108.261 36.6058 108.22 36.685C108.18 36.7642 108.162 36.8531 108.168 36.9422L108.52 41.7206C108.528 41.8175 108.564 41.9098 108.623 41.9859C108.683 42.062 108.762 42.1187 108.853 42.1488C109.701 42.4283 110.565 42.6526 111.44 42.8203C112.169 42.9585 112.907 43.0302 113.648 43.0344C115.451 43.1172 117.219 42.4983 118.595 41.3021C119.22 40.7244 119.714 40.014 120.042 39.2206C120.371 38.4271 120.526 37.5699 120.497 36.7086C120.507 35.5641 120.153 34.4474 119.489 33.5263Z" fill="white"/>
<path d="M103.25 30.5873C102.925 30.5079 102.586 30.5016 102.257 30.5688C101.929 30.636 101.619 30.7751 101.348 30.9766C101.094 31.1522 100.879 31.3794 100.715 31.644C100.552 31.9085 100.443 32.2048 100.396 32.5142C100.039 34.2003 99.1343 35.713 97.8294 36.8061C96.5246 37.8992 94.8965 38.5082 93.2102 38.5342C91.5238 38.5601 89.8787 38.0014 88.5423 36.949C87.2059 35.8966 86.257 34.4124 85.8502 32.7381C85.7791 32.4066 85.6408 32.0942 85.4441 31.8209C85.2474 31.5476 84.9969 31.3197 84.7086 31.1518C84.4404 30.9979 84.1444 30.9014 83.8386 30.8679C83.5328 30.8345 83.2236 30.8648 82.9296 30.9571C82.3492 31.1135 81.8507 31.4939 81.5385 32.0183C81.2263 32.5427 81.1247 33.1704 81.2552 33.7697C81.8782 36.5478 83.415 39.0228 85.6085 40.7804C87.8021 42.538 90.5191 43.4715 93.3051 43.4248C96.091 43.378 98.7767 42.3538 100.913 40.5236C103.049 38.6934 104.505 36.1682 105.039 33.3707C105.034 33.3352 105.034 33.2991 105.039 33.2636C105.104 32.6722 104.959 32.0767 104.631 31.5854C104.303 31.0941 103.813 30.7399 103.25 30.5873Z" fill="white"/>
</g>
<defs>
<clipPath id="clip0_453_2836">
<rect width="100" height="20.3593" fill="white" transform="translate(30 22.9963)"/>
</clipPath>
</defs>
</svg>
