<svg width="81" height="17" viewBox="0 0 81 17" fill="none" xmlns="http://www.w3.org/2000/svg">
<g clip-path="url(#clip0_453_2711)">
<path d="M13.2912 1.02271H10.0033C9.90235 1.02271 9.80559 1.06372 9.73422 1.13673C9.66286 1.20973 9.62274 1.30874 9.62274 1.41198V6.27797H4.98016V1.41198C4.98016 1.30874 4.94004 1.20973 4.86868 1.13673C4.79731 1.06372 4.70055 1.02271 4.59962 1.02271H1.29656C1.19563 1.02271 1.09882 1.06372 1.02746 1.13673C0.95609 1.20973 0.916016 1.30874 0.916016 1.41198V15.7452C0.916016 15.8485 0.95609 15.9475 1.02746 16.0205C1.09882 16.0935 1.19563 16.1345 1.29656 16.1345H4.59962C4.70055 16.1345 4.79731 16.0935 4.86868 16.0205C4.94004 15.9475 4.98016 15.8485 4.98016 15.7452V10.124H9.62274V15.7452C9.62274 15.8485 9.66286 15.9475 9.73422 16.0205C9.80559 16.0935 9.90235 16.1345 10.0033 16.1345H13.2912C13.3915 16.1325 13.4872 16.0909 13.5581 16.0183C13.6291 15.9457 13.6698 15.8479 13.6717 15.7452V1.41198C13.6717 1.30874 13.6316 1.20973 13.5603 1.13673C13.4889 1.06372 13.3921 1.02271 13.2912 1.02271Z" fill="white"/>
<path d="M19.9346 2.03474C19.6472 1.74094 19.281 1.5409 18.8825 1.45994C18.4839 1.37897 18.0708 1.42071 17.6954 1.57987C17.32 1.73902 16.9991 2.00846 16.7734 2.35411C16.5477 2.69976 16.4272 3.10611 16.4272 3.52179C16.4272 3.93747 16.5477 4.34382 16.7734 4.68948C16.9991 5.03513 17.32 5.30455 17.6954 5.46371C18.0708 5.62286 18.4839 5.6646 18.8825 5.58364C19.281 5.50267 19.6472 5.30263 19.9346 5.00883C20.1256 4.81245 20.2765 4.57914 20.3784 4.32249C20.4803 4.06585 20.5313 3.791 20.5283 3.514C20.5327 3.23912 20.4823 2.96619 20.3803 2.71186C20.2782 2.45754 20.1266 2.22715 19.9346 2.03474Z" fill="#5468FF"/>
<path d="M48.3054 1.42762C47.9668 1.42656 47.6332 1.5111 47.3342 1.67375C47.0352 1.8364 46.7802 2.07211 46.5918 2.35991C46.4033 2.64771 46.2873 2.97869 46.2541 3.32341C46.2208 3.66813 46.2714 4.01591 46.4012 4.33582C46.5311 4.65573 46.7363 4.93787 46.9984 5.15712C47.2606 5.37638 47.5716 5.52596 47.9039 5.59258C48.2362 5.6592 48.5794 5.64078 48.9031 5.53897C49.2267 5.43715 49.5208 5.25509 49.7591 5.00898C49.9491 4.81222 50.0988 4.57866 50.1994 4.32198C50.3 4.0653 50.3496 3.79067 50.3452 3.51415C50.3482 3.23928 50.2975 2.96655 50.196 2.71199C50.0946 2.45743 49.9446 2.22615 49.7546 2.03177C49.5645 1.83739 49.3384 1.68383 49.0895 1.58008C48.8407 1.47633 48.5741 1.42449 48.3054 1.42762Z" fill="#00DCD1"/>
<path d="M56.0836 2.03486C55.7977 1.73995 55.4325 1.53867 55.0345 1.45659C54.6365 1.37451 54.2236 1.41534 53.8484 1.5739C53.4731 1.73246 53.1524 2.00159 52.927 2.34707C52.7016 2.69254 52.5817 3.09877 52.5826 3.51412C52.5799 3.79061 52.6318 4.06483 52.7351 4.32034C52.8384 4.57586 52.9911 4.80741 53.1839 5.00116C53.3729 5.19701 53.5981 5.35251 53.8463 5.45865C54.0946 5.56478 54.3608 5.61944 54.6299 5.61944C54.8989 5.61944 55.1653 5.56478 55.4135 5.45865C55.6618 5.35251 55.8869 5.19701 56.076 5.00116C56.2684 4.80585 56.4202 4.57272 56.5222 4.31583C56.6242 4.05893 56.6743 3.78358 56.6696 3.50634C56.6744 3.23325 56.625 2.962 56.5242 2.70906C56.4235 2.45611 56.2736 2.22675 56.0836 2.03486Z" fill="#00DCD1"/>
<path d="M20.3076 7.43032C20.2746 7.39169 20.2335 7.36114 20.1874 7.34093C20.1413 7.32071 20.0914 7.31136 20.0413 7.31354H16.9969C16.8973 7.31558 16.8024 7.35749 16.7327 7.43027C16.663 7.50306 16.624 7.60091 16.624 7.70282V15.7142C16.624 15.8174 16.6641 15.9164 16.7354 15.9894C16.8068 16.0624 16.9036 16.1035 17.0046 16.1035H20.0489C20.1498 16.1035 20.2466 16.0624 20.3179 15.9894C20.3893 15.9164 20.4294 15.8174 20.4294 15.7142V7.70282C20.4291 7.65118 20.418 7.60021 20.397 7.55324C20.376 7.50628 20.3456 7.46438 20.3076 7.43032Z" fill="white"/>
<path d="M79.3787 12.6931C79.2148 12.4741 79.0086 12.2919 78.7729 12.158C78.5372 12.024 78.2771 11.9412 78.0088 11.9146C77.7373 11.882 77.4622 11.9066 77.2004 11.987C76.9386 12.0673 76.6957 12.2017 76.4866 12.3817C76.274 12.5542 76.0971 12.7684 75.9664 13.0117C75.8357 13.255 75.7539 13.5226 75.7255 13.7987C75.6916 14.0753 75.7133 14.3561 75.7892 14.6238C75.8651 14.8916 75.9936 15.1407 76.1669 15.3558C76.3331 15.576 76.542 15.7587 76.7803 15.8927C77.0186 16.0266 77.2813 16.1089 77.5521 16.1344H77.788C78.2901 16.1326 78.7735 15.9393 79.1437 15.5923C79.5139 15.2453 79.7442 14.7695 79.7897 14.258C79.8312 13.9823 79.816 13.7007 79.7453 13.4313C79.6745 13.1619 79.5496 12.9105 79.3787 12.6931Z" fill="#5468FF"/>
<path d="M80.5658 1.60655L77.5215 1.28734C77.4204 1.27866 77.3199 1.30924 77.2399 1.37298C77.2011 1.40566 77.169 1.44588 77.1455 1.49131C77.122 1.53675 77.1074 1.58649 77.1028 1.63768L76.2961 9.63347C76.2884 9.73677 76.3182 9.83935 76.3798 9.92154C76.4118 9.96122 76.4511 9.99404 76.4955 10.0181C76.5399 10.0421 76.5885 10.057 76.6386 10.0617L79.6829 10.3497C79.7764 10.3504 79.8669 10.3159 79.9371 10.2527C80.0073 10.1895 80.0522 10.1021 80.0634 10.0072L80.8702 2.03476C80.8816 1.93726 80.8565 1.83896 80.8001 1.75955C80.7436 1.68014 80.66 1.62549 80.5658 1.60655Z" fill="white"/>
<path d="M38.8766 9.07305C38.5319 8.63084 38.0917 8.2764 37.5905 8.03757C37.98 7.80707 38.3234 7.50329 38.6027 7.14224C39.0393 6.53382 39.2667 5.79468 39.2496 5.04013C39.2817 4.45426 39.1688 3.86955 38.9213 3.34016C38.6739 2.81077 38.2999 2.35379 37.834 2.01154C36.6601 1.27897 35.2943 0.933749 33.922 1.02277H29.5915C29.4906 1.02277 29.3937 1.06379 29.3223 1.13679C29.251 1.2098 29.2109 1.30881 29.2109 1.41205V15.7453C29.2109 15.8485 29.251 15.9476 29.3223 16.0206C29.3937 16.0936 29.4906 16.1346 29.5915 16.1346H33.3969C35.0163 16.2379 36.6292 15.8478 38.0318 15.0135C38.9071 14.3354 39.4868 13.3328 39.6463 12.2217C39.8057 11.1105 39.5321 9.97976 38.8843 9.07305H38.8766ZM33.0163 9.85161H34.0285C34.5095 9.81592 34.9879 9.95063 35.3833 10.2331C35.5271 10.3587 35.64 10.5172 35.7127 10.6957C35.7855 10.8743 35.816 11.0679 35.8018 11.2608C35.8139 11.4637 35.7804 11.6667 35.7039 11.8543C35.6274 12.0419 35.5099 12.209 35.3604 12.343C34.979 12.6391 34.5065 12.7855 34.0285 12.7556H33.0163V9.85161ZM35.056 6.31697C34.6701 6.58046 34.2099 6.70633 33.747 6.6751H32.9859V4.22264H33.6404C34.1366 4.18483 34.633 4.29288 35.0712 4.53406C35.1994 4.6318 35.3001 4.76254 35.3629 4.91296C35.4258 5.06338 35.4485 5.22813 35.4289 5.39048C35.4474 5.56418 35.4246 5.73989 35.3623 5.90259C35.3 6.06528 35.2002 6.21013 35.0712 6.32475L35.056 6.31697Z" fill="white"/>
<path d="M72.5068 8.95634C71.704 8.00912 70.7196 7.24064 69.6147 6.69851L67.9707 5.76424C67.7391 5.64872 67.5342 5.48419 67.3695 5.28154C67.2653 5.14876 67.2064 4.98466 67.202 4.8144C67.1975 4.70983 67.2189 4.6058 67.2642 4.51191C67.3094 4.41801 67.377 4.33728 67.4608 4.2772C67.8566 3.97356 68.6253 3.93463 69.7441 4.37841C70.3924 4.64056 71.0143 4.96649 71.6011 5.35161C71.6603 5.38571 71.7272 5.40363 71.7952 5.40363C71.8631 5.40363 71.93 5.38571 71.9892 5.35161C72.0493 5.318 72.0993 5.26844 72.1342 5.20815C72.169 5.14786 72.1873 5.07907 72.1871 5.00904V1.65346C72.187 1.57146 72.162 1.49151 72.1157 1.4246C72.0693 1.35768 72.004 1.30709 71.9284 1.27976C71.2793 1.04744 70.6157 0.860164 69.942 0.719194C67.6587 0.252059 65.9615 0.649126 64.7133 1.73132C64.2643 2.10818 63.9043 2.58408 63.6604 3.12339C63.4166 3.6627 63.2952 4.25144 63.3053 4.84555C63.3036 5.74097 63.5691 6.61557 64.0663 7.35251C64.6418 8.1544 65.3856 8.81418 66.243 9.28333L67.6511 10.1008C69.12 10.9572 69.3331 11.4944 69.3331 11.7358C69.3379 11.8741 69.3065 12.0112 69.2423 12.133C69.1781 12.2547 69.0834 12.3568 68.9678 12.4287C68.3817 12.8569 67.2401 12.8258 66.1593 12.4287C65.4152 12.1358 64.7015 11.768 64.0284 11.3309C63.9688 11.2936 63.9004 11.2738 63.8306 11.2736C63.7607 11.2734 63.6923 11.2929 63.6326 11.3299C63.5729 11.3669 63.5242 11.4199 63.492 11.4833C63.4598 11.5466 63.4452 11.6178 63.4499 11.6891L63.7315 15.5118C63.7382 15.5893 63.767 15.6631 63.8144 15.724C63.8617 15.7849 63.9255 15.8302 63.9979 15.8544C64.6761 16.078 65.3676 16.2574 66.068 16.3916C66.6504 16.5021 67.2414 16.5594 67.8338 16.5628C69.2768 16.6291 70.6907 16.1339 71.7913 15.177C72.2913 14.7148 72.6866 14.1465 72.9495 13.5117C73.2124 12.877 73.3367 12.1912 73.3135 11.5022C73.3212 10.5866 73.0381 9.6932 72.5068 8.95634Z" fill="white"/>
<path d="M59.5161 6.60515C59.2554 6.54165 58.9844 6.5366 58.7217 6.59036C58.4589 6.64411 58.2107 6.7554 57.9939 6.91658C57.7912 7.05708 57.619 7.23883 57.4881 7.45048C57.3571 7.66214 57.2702 7.89914 57.2329 8.14669C56.947 9.49555 56.2231 10.7057 55.1793 11.5802C54.1354 12.4546 52.8329 12.9419 51.4839 12.9627C50.1348 12.9834 48.8186 12.5365 47.7495 11.6945C46.6804 10.8526 45.9213 9.66522 45.5959 8.32577C45.539 8.06061 45.4283 7.81063 45.271 7.59202C45.1137 7.37341 44.9132 7.19104 44.6826 7.05671C44.468 6.93365 44.2312 6.85639 43.9866 6.82963C43.742 6.80287 43.4946 6.82715 43.2594 6.901C42.7951 7.02614 42.3963 7.3304 42.1465 7.74991C41.8968 8.16943 41.8155 8.6716 41.9199 9.15103C42.4183 11.3736 43.6477 13.3535 45.4026 14.7596C47.1574 16.1657 49.331 16.9125 51.5598 16.8751C53.7885 16.8377 55.9371 16.0184 57.6459 14.5542C59.3547 13.09 60.5201 11.0699 60.9469 8.83182C60.9426 8.80344 60.9426 8.77456 60.9469 8.74618C60.999 8.2731 60.8832 7.79664 60.6206 7.40363C60.3579 7.01062 59.9659 6.72724 59.5161 6.60515Z" fill="white"/>
</g>
<defs>
<clipPath id="clip0_453_2711">
<rect width="80" height="16.2874" fill="white" transform="translate(0.916016 0.532227)"/>
</clipPath>
</defs>
</svg>
