<svg width="148" height="31" viewBox="0 0 148 31" fill="none" xmlns="http://www.w3.org/2000/svg">
<g clip-path="url(#clip0_453_2734)">
<path d="M23.6554 1.57666H17.6139C17.4284 1.57666 17.2506 1.65203 17.1195 1.78618C16.9883 1.92032 16.9146 2.10225 16.9146 2.29196V11.2332H8.38389V2.29196C8.38389 2.10225 8.31016 1.92032 8.17903 1.78618C8.0479 1.65203 7.87009 1.57666 7.68464 1.57666H1.61526C1.42981 1.57666 1.25192 1.65203 1.12079 1.78618C0.989653 1.92032 0.916016 2.10225 0.916016 2.29196V28.6293C0.916016 28.819 0.989653 29.0009 1.12079 29.1351C1.25192 29.2692 1.42981 29.3446 1.61526 29.3446H7.68464C7.87009 29.3446 8.0479 29.2692 8.17903 29.1351C8.31016 29.0009 8.38389 28.819 8.38389 28.6293V18.3004H16.9146V28.6293C16.9146 28.819 16.9883 29.0009 17.1195 29.1351C17.2506 29.2692 17.4284 29.3446 17.6139 29.3446H23.6554C23.8398 29.3409 24.0155 29.2644 24.1459 29.1311C24.2762 28.9977 24.3511 28.8179 24.3547 28.6293V2.29196C24.3547 2.10225 24.2809 1.92032 24.1498 1.78618C24.0187 1.65203 23.8409 1.57666 23.6554 1.57666Z" fill="#040D2E"/>
<path d="M35.8627 3.43658C35.3346 2.89671 34.6618 2.52915 33.9294 2.38038C33.197 2.2316 32.438 2.30829 31.7482 2.60074C31.0584 2.89319 30.4688 3.38828 30.054 4.02342C29.6393 4.65855 29.418 5.40522 29.418 6.16903C29.418 6.93285 29.6393 7.67952 30.054 8.31465C30.4688 8.94978 31.0584 9.44485 31.7482 9.7373C32.438 10.0298 33.197 10.1064 33.9294 9.95767C34.6618 9.8089 35.3346 9.44133 35.8627 8.90146C36.2137 8.54062 36.491 8.11191 36.6782 7.64032C36.8655 7.16873 36.9591 6.6637 36.9536 6.15471C36.9618 5.64961 36.8692 5.1481 36.6817 4.68078C36.4941 4.21346 36.2155 3.79013 35.8627 3.43658Z" fill="#5468FF"/>
<path d="M87.9941 2.3208C87.3719 2.31884 86.7589 2.47419 86.2095 2.77306C85.6601 3.07193 85.1916 3.50504 84.8453 4.03387C84.4991 4.56271 84.2858 5.17088 84.2248 5.80431C84.1637 6.43773 84.2566 7.07678 84.4952 7.66462C84.7338 8.25245 85.1108 8.77087 85.5925 9.17376C86.0742 9.57664 86.6457 9.8515 87.2563 9.97391C87.8669 10.0963 88.4976 10.0625 89.0923 9.87539C89.6871 9.68831 90.2274 9.35377 90.6653 8.90155C91.0144 8.54 91.2894 8.11083 91.4743 7.63918C91.6592 7.16754 91.7503 6.66289 91.7422 6.1548C91.7478 5.64971 91.6545 5.14859 91.4682 4.68082C91.2818 4.21306 91.0061 3.7881 90.6569 3.43093C90.3078 3.07375 89.8922 2.79158 89.435 2.60094C88.9777 2.4103 88.4879 2.31505 87.9941 2.3208Z" fill="#00DCD1"/>
<path d="M102.287 3.43657C101.761 2.89468 101.09 2.52481 100.359 2.37399C99.6277 2.22317 98.8691 2.2982 98.1795 2.58956C97.4899 2.88091 96.9007 3.37543 96.4865 4.01024C96.0724 4.64506 95.8521 5.39151 95.8537 6.1547C95.8487 6.66276 95.944 7.16664 96.1338 7.63614C96.3237 8.10565 96.6042 8.53114 96.9586 8.88715C97.3059 9.24703 97.7196 9.53275 98.1757 9.72778C98.6319 9.9228 99.1212 10.0232 99.6155 10.0232C100.11 10.0232 100.599 9.9228 101.056 9.72778C101.512 9.53275 101.925 9.24703 102.273 8.88715C102.626 8.52826 102.905 8.09989 103.093 7.62785C103.28 7.1558 103.372 6.64984 103.364 6.14041C103.372 5.63861 103.281 5.14019 103.096 4.6754C102.911 4.21062 102.636 3.78916 102.287 3.43657Z" fill="#00DCD1"/>
<path d="M36.5479 13.3507C36.4872 13.2797 36.4117 13.2235 36.327 13.1864C36.2423 13.1492 36.1506 13.1321 36.0585 13.1361H30.4645C30.2815 13.1398 30.1072 13.2168 29.979 13.3506C29.8509 13.4843 29.7793 13.6641 29.7793 13.8514V28.5722C29.7793 28.7619 29.8528 28.9439 29.984 29.078C30.1151 29.2122 30.2931 29.2875 30.4785 29.2875H36.0725C36.2579 29.2875 36.4357 29.2122 36.5669 29.078C36.698 28.9439 36.7717 28.7619 36.7717 28.5722V13.8514C36.7711 13.7565 36.7507 13.6628 36.7121 13.5765C36.6736 13.4902 36.6176 13.4132 36.5479 13.3507Z" fill="#040D2E"/>
<path d="M145.091 23.0214C144.79 22.6189 144.411 22.2842 143.978 22.0381C143.545 21.7919 143.067 21.6397 142.574 21.5908C142.075 21.531 141.569 21.5762 141.088 21.7239C140.607 21.8715 140.161 22.1183 139.777 22.4492C139.386 22.7661 139.061 23.1597 138.821 23.6068C138.581 24.0539 138.43 24.5455 138.378 25.0529C138.316 25.5611 138.356 26.0771 138.495 26.5691C138.635 27.0611 138.871 27.5187 139.189 27.9141C139.495 28.3186 139.878 28.6544 140.316 28.9006C140.754 29.1467 141.237 29.2979 141.735 29.3447H142.168C143.091 29.3414 143.979 28.9862 144.659 28.3486C145.339 27.711 145.763 26.8368 145.846 25.8969C145.922 25.3902 145.894 24.8729 145.764 24.3778C145.634 23.8827 145.405 23.4208 145.091 23.0214Z" fill="#5468FF"/>
<path d="M147.272 2.64976L141.679 2.06321C141.493 2.04726 141.308 2.10345 141.161 2.22057C141.09 2.28063 141.031 2.35453 140.988 2.43801C140.944 2.5215 140.918 2.61291 140.909 2.70697L139.427 17.3992C139.413 17.589 139.468 17.7775 139.581 17.9285C139.64 18.0015 139.712 18.0618 139.793 18.106C139.875 18.1502 139.964 18.1774 140.056 18.1861L145.65 18.7154C145.822 18.7167 145.988 18.6532 146.117 18.5371C146.246 18.421 146.329 18.2604 146.349 18.0859L147.832 3.43659C147.853 3.25745 147.807 3.07681 147.703 2.9309C147.599 2.78498 147.446 2.68456 147.272 2.64976Z" fill="#040D2E"/>
<path d="M70.6684 16.3692C70.035 15.5566 69.226 14.9053 68.3051 14.4665C69.0209 14.0429 69.6519 13.4847 70.165 12.8213C70.9673 11.7033 71.3852 10.3451 71.3537 8.95866C71.4127 7.88211 71.2052 6.80772 70.7505 5.83496C70.2959 4.8622 69.6087 4.02251 68.7525 3.39363C66.5956 2.04752 64.0858 1.41318 61.5643 1.57676H53.607C53.4215 1.57676 53.2435 1.65213 53.1124 1.78628C52.9813 1.92042 52.9077 2.10235 52.9077 2.29206V28.6294C52.9077 28.8191 52.9813 29.001 53.1124 29.1352C53.2435 29.2693 53.4215 29.3447 53.607 29.3447H60.5994C63.575 29.5346 66.5388 28.8177 69.1161 27.2846C70.7243 26.0388 71.7896 24.1965 72.0826 22.1547C72.3756 20.113 71.8728 18.0352 70.6824 16.3692H70.6684ZM59.9001 17.7998H61.7601C62.6439 17.7342 63.5229 17.9817 64.2494 18.5008C64.5137 18.7315 64.7211 19.0227 64.8548 19.3508C64.9884 19.6789 65.0445 20.0347 65.0185 20.3891C65.0406 20.7619 64.9792 21.135 64.8386 21.4797C64.698 21.8244 64.482 22.1315 64.2074 22.3777C63.5065 22.9217 62.6383 23.1907 61.7601 23.1359H59.9001V17.7998ZM63.648 11.3048C62.9388 11.789 62.0934 12.0203 61.2426 11.9629H59.8442V7.45652H61.0468C61.9586 7.38705 62.8708 7.58558 63.676 8.02875C63.9116 8.20835 64.0966 8.44857 64.212 8.72498C64.3275 9.00138 64.3692 9.30411 64.3332 9.60242C64.3673 9.9216 64.3253 10.2445 64.2108 10.5434C64.0964 10.8424 63.9129 11.1085 63.676 11.3191L63.648 11.3048Z" fill="#040D2E"/>
<path d="M132.465 16.1546C130.989 14.4141 129.181 13.002 127.15 12.0058L124.129 10.2891C123.704 10.0768 123.327 9.77451 123.025 9.40214C122.833 9.15815 122.725 8.85662 122.717 8.54378C122.709 8.35162 122.748 8.16047 122.831 7.98794C122.914 7.81541 123.039 7.66707 123.193 7.55666C123.92 6.99872 125.332 6.9272 127.388 7.74264C128.579 8.22434 129.722 8.82323 130.8 9.53089C130.909 9.59356 131.032 9.62648 131.157 9.62648C131.282 9.62648 131.405 9.59356 131.514 9.53089C131.624 9.46913 131.716 9.37807 131.78 9.26728C131.844 9.1565 131.877 9.0301 131.877 8.90143V2.73555C131.877 2.58487 131.831 2.43796 131.746 2.31501C131.661 2.19205 131.541 2.09909 131.402 2.04886C130.209 1.62199 128.99 1.27786 127.752 1.01883C123.556 0.160471 120.438 0.890081 118.144 2.87861C117.319 3.5711 116.657 4.44556 116.209 5.43654C115.761 6.42752 115.538 7.50934 115.557 8.60101C115.554 10.2463 116.042 11.8534 116.955 13.2075C118.013 14.681 119.379 15.8934 120.955 16.7554L123.542 18.2576C126.241 19.8312 126.633 20.8183 126.633 21.2618C126.642 21.5159 126.584 21.7678 126.466 21.9916C126.348 22.2154 126.174 22.403 125.962 22.535C124.885 23.3219 122.787 23.2646 120.801 22.535C119.434 21.9968 118.122 21.3211 116.885 20.5179C116.776 20.4494 116.65 20.4129 116.522 20.4126C116.394 20.4123 116.268 20.448 116.158 20.516C116.048 20.5839 115.959 20.6814 115.9 20.7978C115.841 20.9142 115.814 21.0451 115.823 21.176L116.34 28.2002C116.352 28.3427 116.405 28.4783 116.492 28.5902C116.579 28.7021 116.696 28.7854 116.829 28.8297C118.076 29.2406 119.346 29.5703 120.633 29.8168C121.703 30.02 122.789 30.1253 123.878 30.1315C126.529 30.2532 129.127 29.3434 131.15 27.5851C132.069 26.7358 132.795 25.6915 133.278 24.5251C133.761 23.3588 133.989 22.0986 133.947 20.8326C133.961 19.1502 133.441 17.5086 132.465 16.1546Z" fill="#040D2E"/>
<path d="M108.594 11.8342C108.115 11.7175 107.617 11.7083 107.134 11.807C106.651 11.9058 106.195 12.1103 105.797 12.4065C105.424 12.6647 105.108 12.9986 104.867 13.3875C104.627 13.7764 104.467 14.2119 104.398 14.6668C103.873 17.1453 102.543 19.369 100.625 20.9758C98.7068 22.5827 96.3135 23.478 93.8346 23.5161C91.3557 23.5543 88.9372 22.733 86.9728 21.1859C85.0083 19.6388 83.6134 17.4571 83.0154 14.9959C82.9109 14.5086 82.7076 14.0493 82.4185 13.6476C82.1294 13.2459 81.7611 12.9108 81.3373 12.664C80.943 12.4378 80.5079 12.2959 80.0583 12.2467C79.6088 12.1975 79.1543 12.2422 78.7222 12.3779C77.869 12.6078 77.1361 13.1669 76.6772 13.9377C76.2183 14.7086 76.069 15.6313 76.2608 16.5123C77.1765 20.5962 79.4357 24.2344 82.6602 26.818C85.8847 29.4017 89.8787 30.774 93.9741 30.7053C98.0694 30.6366 102.017 29.131 105.157 26.4406C108.297 23.7502 110.439 20.0381 111.223 15.9257C111.215 15.8736 111.215 15.8205 111.223 15.7684C111.319 14.8991 111.106 14.0236 110.623 13.3014C110.141 12.5793 109.42 12.0586 108.594 11.8342Z" fill="#040D2E"/>
</g>
<defs>
<clipPath id="clip0_453_2734">
<rect width="147" height="29.9281" fill="white" transform="translate(0.916016 0.675537)"/>
</clipPath>
</defs>
</svg>
